# xmcd
#
# Track frame offsets:
#	150
#	18027
#	37286
#	56147
#	71385
#	87869
#	109587
#	111294
#	135155
#	155469
#	171510
#	183989
#	207999
#	209871
#
# Disc length: 3010 seconds
#
# Revision: 0
# Processed by: cddbd v1.5.1PL2 Copyright (c) Steve Scherf et al.
# Submitted via: dBpowerAMP V4.0
#
DISCID=c70bc00e
DTITLE=Marcel - The Diary of Marcel
DYEAR=1998
DGENRE=R&B
TTITLE0=Welcome To The Mallory Gallery
TTITLE1=Feminine Touch (remix)
TTITLE2=I Like It
TTITLE3=A Need To Please
TTITLE4=The I Love You Song (Hip Hop Mix)
TTITLE5=Come Over To My Place
TTITLE6=Welcome To The Gallery Circle
TTITLE7=Maybe Tomorrow
TTITLE8=Lonely
TTITLE9=Strawberry Saturday
TTITLE10=Black Beauty
TTITLE11=Where Do I Go
TTITLE12=Exit The Mallory Gallery
TTITLE13=The I Love You Song
EXTD=
EXTT0=
EXTT1=
EXTT2=
EXTT3=
EXTT4=
EXTT5=
EXTT6=
EXTT7=
EXTT8=
EXTT9=
EXTT10=
EXTT11=
EXTT12=
EXTT13=
PLAYORDER=
